<?xml version="1.0" encoding="UTF-8" standalone="no"?>
<!-- Created with Inkscape (http://www.inkscape.org/) -->

<svg
   width="109.32424mm"
   height="135.46686mm"
   viewBox="0 0 109.32424 135.46686"
   version="1.1"
   id="svg5"
   xml:space="preserve"
   xmlns:inkscape="http://www.inkscape.org/namespaces/inkscape"
   xmlns:sodipodi="http://sodipodi.sourceforge.net/DTD/sodipodi-0.dtd"
   xmlns="http://www.w3.org/2000/svg"
   xmlns:svg="http://www.w3.org/2000/svg"><sodipodi:namedview
     id="namedview7"
     pagecolor="#ffffff"
     bordercolor="#000000"
     borderopacity="0.25"
     inkscape:showpageshadow="2"
     inkscape:pageopacity="0.0"
     inkscape:pagecheckerboard="0"
     inkscape:deskcolor="#d1d1d1"
     inkscape:document-units="mm"
     showgrid="false" /><defs
     id="defs2" /><g
     inkscape:label="Camada 1"
     inkscape:groupmode="layer"
     id="layer1"
     transform="translate(-8.3179495,-81.042593)"><g
       id="g308"
       transform="matrix(0.26458333,0,0,0.26458333,2.376464,81.042788)"><path
         style="fill:#f5dcb4"
         d="m 426.667,89.825 h -71.86 c -19.815,0 -35.93,-16.118 -35.93,-35.93 C 318.877,24.175 294.702,0 264.983,0 235.264,0 211.088,24.175 211.088,53.895 v 35.93 h 17.965 v -35.93 c 0,-19.812 16.115,-35.93 35.93,-35.93 19.815,0 35.93,16.118 35.93,35.93 0,29.72 24.175,53.895 53.895,53.895 h 71.86 c 4.965,0 8.982,-4.022 8.982,-8.982 -10e-4,-4.961 -4.019,-8.983 -8.983,-8.983 z"
         id="path198" /><g
         id="g210">
	<rect
   x="211.088"
   y="71.860001"
   style="fill:#ebc9a0"
   width="17.965"
   height="17.965"
   id="rect204" />
	<path
   style="fill:#ebc9a0"
   d="M 400.113,107.79 H 382.928 V 89.825 h 17.185 z m -34.377,0 h -10.929 c -2.544,0 -5.027,-0.175 -7.464,-0.509 L 349.8,89.482 c 1.63,0.228 3.306,0.342 5.008,0.342 h 10.929 v 17.966 z m -37.798,-7.163 c -6,-3.456 -11.21,-7.965 -15.491,-13.403 L 326.552,76.11 c 2.869,3.631 6.351,6.645 10.351,8.957 z M 303.043,68.982 c -1.412,-4.89 -2.131,-9.965 -2.131,-15.087 -0.009,-1.162 -0.062,-2.368 -0.175,-3.553 l 17.877,-1.728 c 0.166,1.719 0.255,3.46 0.263,5.228 0,3.483 0.483,6.877 1.429,10.14 z M 211.088,54.671 v -0.776 c 0,-6.631 1.194,-13.11 3.535,-19.254 l 16.789,6.412 c -1.57,4.092 -2.359,8.412 -2.359,12.842 z m 85.763,-17.395 c -2.149,-4.093 -5.009,-7.693 -8.527,-10.697 L 300.008,12.93 c 5.255,4.496 9.544,9.886 12.754,16.013 z m -58.22,-7.811 -13.158,-12.228 c 4.71,-5.075 10.264,-9.145 16.509,-12.096 l 7.684,16.237 c -4.166,1.973 -7.876,4.693 -11.035,8.087 z m 37.825,-9.632 c -4.36,-1.465 -9,-2.079 -13.57,-1.807 l -1,-17.939 c 6.824,-0.391 13.772,0.527 20.289,2.71 z"
   id="path206" />
	<path
   style="fill:#ebc9a0"
   d="m 426.667,107.79 h -8.982 V 89.825 h 8.982 c 4.961,0 8.982,4.022 8.982,8.982 v 0 c 0,4.961 -4.022,8.983 -8.982,8.983 z"
   id="path208" />
</g><path
         style="fill:#464655"
         d="m 256,80.842 h -71.86 c -4.961,0 -8.982,4.022 -8.982,8.982 v 40.421 h 89.825 v -40.42 c 0,-4.962 -4.022,-8.983 -8.983,-8.983 z"
         id="path212" /><circle
         style="fill:#5b5d6e"
         cx="220.07001"
         cy="314.38599"
         r="197.614"
         id="circle214" /><path
         style="fill:#464655"
         d="m 286.69,445.379 c -109.139,0 -197.614,-88.475 -197.614,-197.614 0,-37.495 10.443,-72.549 28.578,-102.416 C 60.584,180.001 22.457,242.74 22.457,314.385 22.456,423.525 110.931,512 220.07,512 c 71.645,0 134.383,-38.127 169.036,-95.198 -29.867,18.134 -64.921,28.577 -102.416,28.577 z"
         id="path216" /><g
         id="g236">
	<path
   style="fill:#707487"
   d="m 297.579,183.688 c -1.825,0 -3.667,-0.444 -5.386,-1.378 -3.798,-2.083 -7.728,-4.013 -11.667,-5.745 -5.685,-2.492 -8.263,-9.114 -5.772,-14.79 2.483,-5.667 9.105,-8.267 14.79,-5.772 4.544,1.991 9.061,4.215 13.439,6.605 5.439,2.978 7.43,9.802 4.456,15.241 -2.044,3.73 -5.896,5.839 -9.86,5.839 z"
   id="path232" />
	<path
   style="fill:#707487"
   d="m 371.983,270.127 c -4.579,0 -8.886,-2.825 -10.544,-7.377 -8.149,-22.293 -21.729,-42.653 -39.263,-58.877 -4.553,-4.211 -4.834,-11.311 -0.623,-15.864 4.228,-4.553 11.325,-4.829 15.869,-0.619 20.149,18.632 35.746,42.022 45.105,67.649 2.131,5.825 -0.868,12.272 -6.693,14.403 -1.273,0.462 -2.571,0.685 -3.851,0.685 z"
   id="path234" />
</g><g
         id="g238">
</g><g
         id="g240">
</g><g
         id="g242">
</g><g
         id="g244">
</g><g
         id="g246">
</g><g
         id="g248">
</g><g
         id="g250">
</g><g
         id="g252">
</g><g
         id="g254">
</g><g
         id="g256">
</g><g
         id="g258">
</g><g
         id="g260">
</g><g
         id="g262">
</g><g
         id="g264">
</g><g
         id="g266">
</g></g></g></svg>
